<svg xmlns="http://www.w3.org/2000/svg" aria-hidden="true" viewBox="0.5 0.5 14 14" role="img"><path d="M12.063 4.679c.217-.002.416.03.527.235.105.195.025.375-.082.546-1.85 2.928-3.697 5.856-5.546 8.784-.112.18-.262.314-.479.232-.226-.086-.36-.262-.327-.525.106-.83.608-4.646.764-5.725.032-.226-.029-.279-.253-.277-1.227.01-2.454.002-3.678.008-.238 0-.455-.025-.58-.254-.127-.233.019-.409.143-.584L7.032.85c.073-.103.138-.213.252-.279.327-.196.689.033.689.449.006 1.1.012 2.2-.004 3.3-.004.28.068.372.357.369l3.737-.01"/></svg>