<svg xmlns="http://www.w3.org/2000/svg" aria-hidden="true" viewBox="0 0 14 14" role="img"><path fill-rule="evenodd" d="M3.237 1.368h5.896v5.375c0 .185-.097.552-.2.757l-2.564 2.802c-.205.22-.317.508-.317.81v1.35c-.35-.274-.946-1.057-.215-2.974a1.2 1.2 0 00-1.115-1.624H1.54l1.697-6.496zM.15 8.948c.142.183.36.284.614.284H4.48c-1.194 3.422.965 4.492 1.22 4.605a1.946 1.946 0 001.629-.033.177.177 0 00.09-.152l.002-2.475s2.577-2.79 2.587-2.79h3.78c.116 0 .21-.078.21-.172V.172c0-.094-.095-.17-.21-.17L3.085 0C2.59 0 2.08.404 1.947.903L.032 8.243a.805.805 0 00.12.706z"/></svg>